<?xml version="1.0" standalone="no"?><!DOCTYPE svg PUBLIC "-//W3C//DTD SVG 1.1//EN" "http://www.w3.org/Graphics/SVG/1.1/DTD/svg11.dtd"><svg class="icon" width="48px" height="48.00px" viewBox="0 0 1024 1024" version="1.1" xmlns="http://www.w3.org/2000/svg"><path d="M211.2 538.8c66.1-9.1 89.1-76.4 82.3-141.1-6-57.2-44.4-122.4-107.7-116.7-60.8 5.5-98.4 65.3-98 135.6 0.4 66.9 46.8 132.8 123.4 122.2zM395.4 330.4c65.3-6.2 88.5-73.2 87-139-1.7-72.5-41.4-130.6-104.1-127.3-55.7 3-100.7 58.9-102.9 133.4-2.5 77.8 47.4 139.8 120 132.9z" fill="#FF0000" /><path d="M812.8 538.8c-66.1-9.1-89.1-76.4-82.3-141.1 6-57.2 44.4-122.4 107.7-116.7 60.8 5.5 98.4 65.3 98 135.6-0.4 66.9-46.8 132.8-123.4 122.2zM628.6 330.4c-65.3-6.2-88.6-73.2-87-139 1.7-72.5 41.5-130.6 104.1-127.3 55.7 3 100.7 58.9 102.9 133.4 2.5 77.8-47.4 139.8-120 132.9z" fill="#FF0000" /><path d="M363.3 709c-31.4 0-50.5 25.7-50.5 54.1 0 28.5 20.3 53.9 52.1 53.9h52.3V709.1c-18.2-0.1-38.4-0.1-53.9-0.1z" fill="#FF0000" /><path d="M769.2 613.9c-21-19.8-79.1-59-123.3-132.2-29.7-48.3-80.3-81-133.9-79.9-53.6-1.1-104.2 31.6-133.9 79.9-44.1 73.2-102.3 112.4-123.3 132.2-26.2 24.8-137.3 83.7-113.1 212.6C165.6 953.6 286 959.3 286 959.3s56.3 6 153.4-17.4c26.4-5.8 51-7.9 72.6-8.1 21.6 0.2 46.1 2.3 72.6 8.1 97 23.4 153.4 17.4 153.4 17.4s120.4-5.7 144.3-132.8c24.1-128.9-86.9-187.8-113.1-212.6zM480.1 877.8H367.8c-74.6 0-117.5-48.2-117.5-116.9 0-63 45.7-112.6 113.4-112.6h53.5v-97.5h62.9v327z m253.7 0H604.7c-52.5 0-76.3-28.3-76.3-69.9V646.4h60.9v141.8c0 22.3 8.9 28.7 20.5 28.7h63l-0.1-170.6h61.1v231.5z" fill="#FF0000" /></svg>