<?xml version="1.0" encoding="UTF-8"?>
<svg version="1.1" viewBox="0 0 64 64" xmlns="http://www.w3.org/2000/svg">
 <defs>
  <marker id="Triangle" overflow="visible" markerHeight="0.4" markerWidth="0.4" orient="auto-start-reverse" preserveAspectRatio="xMidYMid" viewBox="0 0 1 1">
   <path transform="scale(.5)" d="m5.77 0-8.65 5v-10z" fill="context-stroke" fill-rule="evenodd" stroke="context-stroke" stroke-width="1pt"/>
  </marker>
  <marker id="Triangle-0" overflow="visible" markerHeight="0.40000001" markerWidth="0.40000001" orient="auto-start-reverse" preserveAspectRatio="xMidYMid" viewBox="0 0 1 1">
   <path transform="scale(.5)" d="m5.77 0-8.65 5v-10z" fill="context-stroke" fill-rule="evenodd" stroke="context-stroke" stroke-width="1pt"/>
  </marker>
  <marker id="Triangle-7" overflow="visible" markerHeight="0.40000001" markerWidth="0.40000001" orient="auto-start-reverse" preserveAspectRatio="xMidYMid" viewBox="0 0 1 1">
   <path transform="scale(.5)" d="m5.77 0-8.65 5v-10z" fill="context-stroke" fill-rule="evenodd" stroke="context-stroke" stroke-width="1pt"/>
  </marker>
  <marker id="Triangle-0-1" overflow="visible" markerHeight="0.40000001" markerWidth="0.40000001" orient="auto-start-reverse" preserveAspectRatio="xMidYMid" viewBox="0 0 1 1">
   <path transform="scale(.5)" d="m5.77 0-8.65 5v-10z" fill="context-stroke" fill-rule="evenodd" stroke="context-stroke" stroke-width="1pt"/>
  </marker>
 </defs>
 <g fill="none">
  <g stroke="#0c0000">
   <rect x="8.4472" y="15.629" width="47.74" height="32.962" stroke-width="1.047"/>
   <path d="m23.34 4.5575v55.243" stroke-dasharray="1" stroke-width=".5"/>
   <path d="m40.836 4.1765v55.243" stroke-dasharray="1" stroke-width=".5"/>
  </g>
  <g stroke="#f40000" stroke-miterlimit="2.9" stroke-width=".78614">
   <path d="m19.348 30.205c-2.65-0.05638-2.65-0.05638-2.65-0.05638" marker-end="url(#Triangle)" marker-start="url(#Triangle)"/>
   <path d="m29.229 30.426c-2.65-0.05638-2.65-0.05638-2.65-0.05638" marker-end="url(#Triangle-7)" marker-start="url(#Triangle-7)"/>
   <path d="m37.876 30.521c-2.65-0.05638-2.65-0.05638-2.65-0.05638" marker-end="url(#Triangle-0)" marker-start="url(#Triangle-0)"/>
   <path d="m46.467 30.841c-2.65-0.05638-2.65-0.05638-2.65-0.05638" marker-end="url(#Triangle-0-1)" marker-start="url(#Triangle-0-1)"/>
  </g>
 </g>
</svg>
