<?xml version="1.0" standalone="no"?><!DOCTYPE svg PUBLIC "-//W3C//DTD SVG 1.1//EN" "http://www.w3.org/Graphics/SVG/1.1/DTD/svg11.dtd"><svg class="icon" width="48px" height="48.00px" viewBox="0 0 1024 1024" version="1.1" xmlns="http://www.w3.org/2000/svg"><path d="M512 512m-498.162162 0a498.162162 498.162162 0 1 0 996.324324 0 498.162162 498.162162 0 1 0-996.324324 0Z" fill="#FFFFFF" /><path d="M812.142703 767.861622a67.39027 67.39027 0 0 1-63.128217-36.365838 69.82573 69.82573 0 0 0 34.636109 78.266811v10.309189l-111.643676 3.099675v-10.309189a73.008432 73.008432 0 0 0 34.525405-76.481729 70.254703 70.254703 0 0 1-133.535135-43.603027c1.21773-4.857081 2.435459-9.714162 6.074811-13.976217l4.234378-6.669838c1.21773-4.843243 4.843243-9.105297 9.09146-15.775135l131.542486-217.337081 138.502919 209.878487c6.060973 6.669838 9.714162 12.730811 13.353514 18.805621l1.826594 3.030487c13.976216 37.002378-6.019459 75.859027-43.035675 89.835243-6.669838 6.074811-14.557405 6.683676-22.444973 7.292541z m-57.952865-481.169298c-6.669838-4.248216-13.962378-6.060973-18.196757 0.608865L483.701622 544.159135c0.608865-2.435459 4.248216-6.683676 4.843243-9.105297l212.230919-261.673514L537.516973 235.243243a17.103568 17.103568 0 0 0-21.227243 12.758487l-116.888216 365.388108c-1.21773-5.465946 0-10.323027 0.595027-12.744649l68.967783-338.653405-159.591783 9.202162c-8.496432 3.044324-12.730811 9.714162-9.686487 18.210595l84.549189 343.413621c-1.812757-3.044324-3.639351-6.074811-4.843243-11.526919L284.533622 350.097297l-110.412108 60.139244c-6.669838 6.074811-6.060973 13.976216-2.407784 20.023351l238.661189 294.164757c-4.843243-1.203892-7.278703-1.798919-9.105297-4.843244L198.476108 509.135568l-51.490594 144.467027c-2.421622 9.700324 3.044324 18.805622 12.758486 21.227243l412.146162 177.539459c-5.452108 1.21773-10.309189 0-12.730811-0.595027L119.697297 711.264865c-16.992865-4.234378-27.924757-22.431135-23.690378-39.437838L172.972973 487.313297l-47.366919-47.920432c-9.714162-12.730811-10.336865-30.941405 2.407784-40.655568l143.16627-77.768648-17.02054-45.498811c-3.653189-16.384 5.43827-32.159135 19.38681-36.421189l200.856217-9.229838 4.234378-16.992865c4.248216-16.992865 22.444973-27.924757 39.437838-23.690378l193.619027 71.48627 7.887567-10.931892c10.309189-10.323027 28.505946-10.931892 38.828973-0.636541l128.138379 147.995676-2.421622-0.608865-129.937297-109.747892z" fill="#D9251C" /></svg>