<?xml version="1.0" standalone="no"?><!DOCTYPE svg PUBLIC "-//W3C//DTD SVG 1.1//EN" "http://www.w3.org/Graphics/SVG/1.1/DTD/svg11.dtd"><svg class="icon" width="48px" height="48.00px" viewBox="0 0 1024 1024" version="1.1" xmlns="http://www.w3.org/2000/svg"><path d="M588.032 827.52c8.832-46.08 17.408-90.112 26.24-136.32h-62.208c4.224 19.968 7.424 39.424 12.416 58.496 4.096 15.488-1.664 22.272-16.512 22.912-61.44 2.304-54.912 22.272-63.232-47.36-0.64-5.376-2.176-10.88-1.92-16.256 1.024-20.224-9.216-27.008-28.288-31.872-26.88-6.784-54.016-16.384-78.08-29.952-48.128-27.008-64.384-83.2-43.136-134.272 18.176-43.392 51.2-72.32 91.392-93.44 16.64-8.704 22.144-18.944 18.944-37.12-3.584-20.48-4.864-41.344-7.04-61.44 36.096-10.88 35.968-10.752 43.008 21.248 3.072 14.208 6.656 28.416 9.856 42.24 55.552-13.824 108.928-27.904 162.56-40.32 36.736-8.448 36.992-7.296 45.184-45.312 3.328-15.232 6.656-30.464 10.112-45.696 5.504-24.32 17.792-31.744 41.344-22.272 4.992 2.048 9.344 13.056 8.96 19.712-1.536 24.064-5.248 47.872-8.832 76.672 46.976-3.456 91.776-6.656 136.576-9.856 0.256 2.048 0.512 3.968 0.896 6.016-36.864 8.832-73.472 18.56-110.72 25.984-21.12 4.224-30.848 12.032-33.28 35.84-8.32 84.608-19.456 168.96-30.592 253.184-2.944 21.632 3.2 30.464 25.216 29.056 16.256-1.024 32.512-0.256 48.768-0.256 0.128 2.048 0.384 4.224 0.512 6.272-18.56 2.688-36.992 6.784-55.552 7.552-20.096 0.896-26.112 10.368-27.52 29.184-2.56 34.944-8.192 69.76-11.008 104.704-1.664 20.864-10.496 26.24-30.336 22.528-23.424-4.608-47.488-6.528-73.728-9.856z m92.672-448.256c-1.92-2.304-3.968-4.608-5.888-6.912-53.76 20.352-107.392 40.704-161.152 60.928-12.16 4.608-12.928 12.416-10.368 24.064 10.112 45.696 19.072 91.52 28.416 137.344 12.032 58.88 12.16 58.624 72.576 64.256 12.672 1.152 18.56-2.432 20.992-14.976 7.296-36.736 15.488-73.216 23.168-109.824 10.88-51.584 21.504-103.296 32.256-154.88zM454.4 474.496c-36.48 23.296-54.656 61.44-47.104 94.592 5.76 25.984 34.56 50.56 65.408 53.632-6.144-49.28-12.16-97.92-18.304-148.224z" fill="#d81e06" /></svg>